<svg xmlns="http://www.w3.org/2000/svg" version="1.1" xmlns:xlink="http://www.w3.org/1999/xlink" xmlns:svgjs="http://svgjs.dev/svgjs" width="1440" height="560" preserveAspectRatio="none" viewBox="0 0 1440 560"><g mask="url(&quot;#SvgjsMask1086&quot;)" fill="none"><path d="M231.219,380.671C278.56,379.277,321.38,356.027,347.076,316.241C375.426,272.345,391.401,217.188,366.462,171.268C340.624,123.693,285.348,103.884,231.219,102.914C175.054,101.908,115.565,117.714,87.313,166.267C58.935,215.038,71.459,276.582,102.905,323.433C130.879,365.111,181.045,382.149,231.219,380.671" fill="rgba(28, 83, 142, 0.4)" class="triangle-float1"></path><path d="M55.867,75.582C73.252,75.622,88.741,66.402,98.404,51.95C109.474,35.393,118.18,14.413,108.344,-2.906C98.433,-20.356,75.935,-22.818,55.867,-22.943C35.498,-23.07,12.266,-21.301,2.247,-3.566C-7.679,14.005,2.348,35.048,13.667,51.756C23.378,66.09,38.553,75.542,55.867,75.582" fill="rgba(28, 83, 142, 0.4)" class="triangle-float1"></path><path d="M454.556,296.544C508.388,297.742,567.762,291.677,596.619,246.218C627.037,198.3,619.825,134.056,587.17,87.634C558.49,46.863,504.384,42.854,454.556,44.261C407.979,45.576,360.286,56.091,334.311,94.775C305.275,138.018,296.372,195.387,323.037,240.131C349.211,284.05,403.442,295.407,454.556,296.544" fill="rgba(28, 83, 142, 0.4)" class="triangle-float1"></path><path d="M474.833,625.743C519.02,625.174,551.332,590.582,575.12,553.34C601.602,511.881,630.45,462.388,606.691,419.31C582.491,375.432,524.926,370.225,474.833,371.505C427.575,372.713,377.512,384.665,354.151,425.763C330.992,466.505,345.759,515.855,369.973,555.979C393.221,594.504,429.841,626.322,474.833,625.743" fill="rgba(28, 83, 142, 0.4)" class="triangle-float2"></path><path d="M951.973,453.684C969.97,453.495,989.115,449.732,998.505,434.378C1008.225,418.485,1005.307,398.227,995.623,382.312C986.336,367.05,969.833,357.437,951.973,357.908C934.864,358.359,921.184,369.985,912.135,384.512C902.397,400.144,894.529,419.413,903.72,435.372C912.922,451.35,933.535,453.877,951.973,453.684" fill="rgba(28, 83, 142, 0.4)" class="triangle-float1"></path><path d="M1438.208,475.604C1491.198,475.36,1545.81,461.509,1574.425,416.909C1605.196,368.949,1606.542,306.875,1578.17,257.457C1549.684,207.841,1495.42,179.673,1438.208,179.646C1380.947,179.619,1326.752,207.796,1298.013,257.323C1269.169,307.031,1268.738,369.82,1299.796,418.176C1328.728,463.222,1384.672,475.851,1438.208,475.604" fill="rgba(28, 83, 142, 0.4)" class="triangle-float3"></path><path d="M82.006,575.047C135.778,572.151,163.948,517.226,190.422,470.333C216.235,424.611,246.559,373.313,222.141,326.832C196.621,278.253,136.761,260.352,82.006,263.959C33.219,267.173,-4.387,301.409,-29.426,343.404C-55.248,386.713,-70.578,437.775,-48.72,483.214C-23.977,534.648,25.013,578.117,82.006,575.047" fill="rgba(28, 83, 142, 0.4)" class="triangle-float3"></path><path d="M394.893,371.574C421.615,371.133,444.82,355.358,458.693,332.514C473.184,308.652,479.673,278.967,465.867,254.703C451.938,230.223,423.058,220.467,394.893,220.386C366.562,220.304,337.622,229.903,323.207,254.292C308.574,279.05,312.339,310.145,327.337,334.683C341.679,358.147,367.397,372.028,394.893,371.574" fill="rgba(28, 83, 142, 0.4)" class="triangle-float1"></path><path d="M879.199,521.257C905.7,522.457,926.605,500.414,938.657,476.782C949.575,455.375,948.279,430.317,936.162,409.566C924.154,389.002,903.005,374.396,879.199,374.955C856.218,375.495,837.368,391.781,826.688,412.136C816.782,431.015,819.144,452.578,828.389,471.789C839.375,494.618,853.89,520.111,879.199,521.257" fill="rgba(28, 83, 142, 0.4)" class="triangle-float2"></path><path d="M1232.566,217.503C1261.099,216.074,1280.607,191.07,1293.286,165.469C1304.374,143.08,1305.306,117.264,1292.968,95.539C1280.472,73.536,1257.865,58.074,1232.566,58.552C1207.981,59.017,1189.194,77.005,1175.995,97.751C1161.417,120.665,1148.708,147.574,1160.308,172.13C1173.328,199.692,1202.121,219.028,1232.566,217.503" fill="rgba(28, 83, 142, 0.4)" class="triangle-float2"></path><path d="M931.582,595.254C959.605,594.757,986.512,582.954,1001.194,559.081C1016.597,534.036,1018.055,502.888,1004.403,476.848C989.698,448.8,963.251,426.464,931.582,426.302C899.681,426.139,872.772,448.11,857.463,476.098C842.799,502.907,841.421,535.68,857.561,561.627C872.903,586.291,902.541,595.769,931.582,595.254" fill="rgba(28, 83, 142, 0.4)" class="triangle-float2"></path><path d="M960.631,473.93C982.852,473.201,1000.281,455.939,1009.88,435.885C1018.221,418.458,1013.8,399.054,1004.599,382.066C994.809,363.992,981.172,345.704,960.631,344.958C939.141,344.178,921.618,360.097,910.761,378.659C899.779,397.436,895.355,420.042,905.443,439.314C916.236,459.934,937.37,474.694,960.631,473.93" fill="rgba(28, 83, 142, 0.4)" class="triangle-float3"></path><path d="M1324.414,295.308C1354.126,294.151,1371.381,264.852,1385.327,238.59C1398.126,214.488,1408.193,186.561,1394.784,162.794C1381.201,138.718,1352.057,130.566,1324.414,130.625C1296.894,130.683,1269.006,139.668,1254.559,163.091C1239.445,187.596,1241.238,218.223,1254.687,243.679C1269.167,271.086,1293.44,296.515,1324.414,295.308" fill="rgba(28, 83, 142, 0.4)" class="triangle-float3"></path><path d="M1313.262,617.14C1342.238,616.026,1364.614,593.188,1377.099,567.016C1387.901,544.371,1383.129,518.791,1370.525,497.098C1357.993,475.529,1338.168,458.55,1313.262,457.144C1285.796,455.594,1258.314,466.696,1243.59,489.934C1227.833,514.803,1226.171,546.453,1240.314,572.275C1255.011,599.11,1282.689,618.316,1313.262,617.14" fill="rgba(28, 83, 142, 0.4)" class="triangle-float1"></path><path d="M925.817,682.765C972.15,679.829,1011.565,653.044,1035.69,613.379C1060.958,571.834,1073.547,520.782,1050.321,478.062C1026.212,433.718,976.276,412.533,925.817,411.288C872.799,409.98,818.438,426.754,790.199,471.645C760.26,519.238,758.462,581.714,788.851,629.021C817.261,673.247,873.357,686.089,925.817,682.765" fill="rgba(28, 83, 142, 0.4)" class="triangle-float2"></path><path d="M558.814,412.057C597.87,411.618,639.013,401.507,658.792,367.827C678.77,333.809,670.017,291.44,649.403,257.804C629.799,225.816,596.234,207.39,558.814,204.69C515.141,201.539,465.647,205.79,442.35,242.865C418.044,281.546,428.96,332.49,454.863,370.121C477.569,403.107,518.771,412.507,558.814,412.057" fill="rgba(28, 83, 142, 0.4)" class="triangle-float3"></path><path d="M1129.07,130.191C1146.461,130.16,1159.774,116.052,1167.7,100.572C1174.881,86.547,1173.877,70.561,1166.812,56.478C1158.79,40.488,1146.959,23.669,1129.07,23.574C1111.085,23.478,1098.721,40.013,1090.627,56.074C1083.45,70.317,1082.854,86.554,1090.197,100.712C1098.222,116.185,1111.64,130.223,1129.07,130.191" fill="rgba(28, 83, 142, 0.4)" class="triangle-float1"></path><path d="M1226.956,383.5C1269.21,381.316,1309.95,362.473,1330.068,325.252C1349.341,289.594,1338.687,247.994,1319.495,212.293C1298.929,174.037,1270.387,132.938,1226.956,133.446C1184.009,133.949,1160.362,177.689,1138.094,214.416C1114.512,253.311,1082.403,296.696,1103.564,336.96C1125.483,378.666,1179.904,385.932,1226.956,383.5" fill="rgba(28, 83, 142, 0.4)" class="triangle-float2"></path><path d="M61.783,539.076C106.598,535.496,132.584,492.727,153.527,452.945C172.583,416.748,186.587,375.143,166.986,339.238C146.715,302.107,104.064,283.505,61.783,284.89C21.824,286.199,-10.215,312.317,-32.12,345.762C-57.011,383.766,-79.274,429.092,-59.424,469.956C-37.643,514.795,12.092,543.045,61.783,539.076" fill="rgba(28, 83, 142, 0.4)" class="triangle-float3"></path><path d="M1265.255,525.682C1283.03,525.546,1300.111,518.843,1310.109,504.145C1321.598,487.255,1327.744,465.731,1318.388,447.573C1308.365,428.119,1287.08,415.482,1265.255,417.091C1245.449,418.551,1233.384,436.934,1224.154,454.519C1215.758,470.515,1210.163,489.197,1219.198,504.84C1228.231,520.48,1247.195,525.82,1265.255,525.682" fill="rgba(28, 83, 142, 0.4)" class="triangle-float3"></path></g><defs><mask id="SvgjsMask1086"><rect width="1440" height="560" fill="#ffffff"></rect></mask><style>
                @keyframes float1 {
                    0%{transform: translate(0, 0)}
                    50%{transform: translate(-10px, 0)}
                    100%{transform: translate(0, 0)}
                }

                .triangle-float1 {
                    animation: float1 5s infinite;
                }

                @keyframes float2 {
                    0%{transform: translate(0, 0)}
                    50%{transform: translate(-5px, -5px)}
                    100%{transform: translate(0, 0)}
                }

                .triangle-float2 {
                    animation: float2 4s infinite;
                }

                @keyframes float3 {
                    0%{transform: translate(0, 0)}
                    50%{transform: translate(0, -10px)}
                    100%{transform: translate(0, 0)}
                }

                .triangle-float3 {
                    animation: float3 6s infinite;
                }
            </style></defs></svg>