<svg xmlns="http://www.w3.org/2000/svg" xmlns:xlink="http://www.w3.org/1999/xlink" width="133" zoomAndPan="magnify" viewBox="0 0 99.75 30.000001" height="40" preserveAspectRatio="xMidYMid meet" version="1.0"><defs><g/><clipPath id="93450878de"><path d="M 2.125 13.574219 L 9.273438 13.574219 L 9.273438 17.253906 L 2.125 17.253906 Z M 2.125 13.574219 " clip-rule="nonzero"/></clipPath><clipPath id="20540e477c"><path d="M 2.273438 13.574219 L 9.121094 13.574219 C 9.203125 13.574219 9.273438 13.640625 9.273438 13.722656 L 9.273438 17.101562 C 9.273438 17.1875 9.203125 17.253906 9.121094 17.253906 L 2.273438 17.253906 C 2.191406 17.253906 2.125 17.1875 2.125 17.101562 L 2.125 13.722656 C 2.125 13.640625 2.191406 13.574219 2.273438 13.574219 Z M 2.273438 13.574219 " clip-rule="nonzero"/></clipPath><clipPath id="155ea80639"><path d="M 91.910156 14.515625 L 97.382812 14.515625 L 97.382812 19.988281 L 91.910156 19.988281 Z M 91.910156 14.515625 " clip-rule="nonzero"/></clipPath><clipPath id="d7d3487e54"><path d="M 94.648438 14.515625 C 93.136719 14.515625 91.910156 15.742188 91.910156 17.253906 C 91.910156 18.765625 93.136719 19.988281 94.648438 19.988281 C 96.160156 19.988281 97.382812 18.765625 97.382812 17.253906 C 97.382812 15.742188 96.160156 14.515625 94.648438 14.515625 Z M 94.648438 14.515625 " clip-rule="nonzero"/></clipPath></defs><g clip-path="url(#93450878de)"><g clip-path="url(#20540e477c)"><path fill="#ffffff" d="M 2.125 13.574219 L 9.273438 13.574219 L 9.273438 17.253906 L 2.125 17.253906 Z M 2.125 13.574219 " fill-opacity="1" fill-rule="nonzero"/></g></g><g clip-path="url(#155ea80639)"><g clip-path="url(#d7d3487e54)"><path fill="#ffffff" d="M 91.910156 14.515625 L 97.382812 14.515625 L 97.382812 19.988281 L 91.910156 19.988281 Z M 91.910156 14.515625 " fill-opacity="1" fill-rule="nonzero"/></g></g><g fill="#ffffff" fill-opacity="1"><g transform="translate(11.140872, 18.578778)"><g><path d="M 3.15625 -6.5625 C 4.039062 -6.5625 4.71875 -6.207031 5.1875 -5.5 L 5.390625 -6.421875 L 7.359375 -6.421875 L 7.359375 2.390625 L 4.953125 2.390625 L 4.953125 -0.578125 C 4.492188 -0.0976562 3.894531 0.140625 3.15625 0.140625 C 2.28125 0.140625 1.609375 -0.140625 1.140625 -0.703125 C 0.671875 -1.265625 0.4375 -2.097656 0.4375 -3.203125 C 0.4375 -4.304688 0.671875 -5.140625 1.140625 -5.703125 C 1.609375 -6.273438 2.28125 -6.5625 3.15625 -6.5625 Z M 3.90625 -4.78125 C 3.207031 -4.78125 2.859375 -4.363281 2.859375 -3.53125 L 2.859375 -2.890625 C 2.859375 -2.054688 3.207031 -1.640625 3.90625 -1.640625 C 4.257812 -1.640625 4.523438 -1.765625 4.703125 -2.015625 C 4.878906 -2.273438 4.96875 -2.609375 4.96875 -3.015625 L 4.96875 -3.421875 C 4.96875 -3.828125 4.878906 -4.15625 4.703125 -4.40625 C 4.523438 -4.65625 4.257812 -4.78125 3.90625 -4.78125 Z M 3.90625 -4.78125 "/></g></g></g><g fill="#ffffff" fill-opacity="1"><g transform="translate(18.372372, 18.578778)"><g><path d="M 5.390625 0 L 5.234375 -0.96875 C 4.972656 -0.625 4.640625 -0.351562 4.234375 -0.15625 C 3.828125 0.0390625 3.394531 0.140625 2.9375 0.140625 C 2.195312 0.140625 1.640625 -0.0625 1.265625 -0.46875 C 0.890625 -0.882812 0.703125 -1.484375 0.703125 -2.265625 L 0.703125 -6.421875 L 3.125 -6.421875 L 3.125 -2.546875 C 3.125 -2.273438 3.191406 -2.054688 3.328125 -1.890625 C 3.472656 -1.722656 3.675781 -1.640625 3.9375 -1.640625 C 4.238281 -1.640625 4.484375 -1.734375 4.671875 -1.921875 C 4.859375 -2.117188 4.953125 -2.363281 4.953125 -2.65625 L 4.953125 -6.421875 L 7.359375 -6.421875 L 7.359375 0 Z M 5.390625 0 "/></g></g></g><g fill="#ffffff" fill-opacity="1"><g transform="translate(25.603872, 18.578778)"><g><path d="M 4.046875 -6.5625 C 5.222656 -6.5625 6.117188 -6.285156 6.734375 -5.734375 C 7.359375 -5.179688 7.671875 -4.335938 7.671875 -3.203125 L 7.671875 -2.796875 L 2.859375 -2.796875 C 2.859375 -2.335938 2.960938 -1.988281 3.171875 -1.75 C 3.378906 -1.507812 3.703125 -1.390625 4.140625 -1.390625 C 4.546875 -1.390625 4.84375 -1.472656 5.03125 -1.640625 C 5.226562 -1.816406 5.328125 -2.046875 5.328125 -2.328125 L 7.671875 -2.328125 C 7.671875 -1.554688 7.375 -0.953125 6.78125 -0.515625 C 6.1875 -0.078125 5.320312 0.140625 4.1875 0.140625 C 3 0.140625 2.078125 -0.132812 1.421875 -0.6875 C 0.765625 -1.238281 0.4375 -2.078125 0.4375 -3.203125 C 0.4375 -4.304688 0.753906 -5.140625 1.390625 -5.703125 C 2.035156 -6.273438 2.921875 -6.5625 4.046875 -6.5625 Z M 4.140625 -5.015625 C 3.378906 -5.015625 2.957031 -4.65625 2.875 -3.9375 L 5.234375 -3.9375 C 5.234375 -4.269531 5.132812 -4.53125 4.9375 -4.71875 C 4.75 -4.914062 4.484375 -5.015625 4.140625 -5.015625 Z M 4.140625 -5.015625 "/></g></g></g><g fill="#ffffff" fill-opacity="1"><g transform="translate(32.835373, 18.578778)"><g><path d="M 3.78125 -6.5625 C 4.632812 -6.5625 5.359375 -6.394531 5.953125 -6.0625 C 6.554688 -5.726562 6.859375 -5.207031 6.859375 -4.5 L 4.609375 -4.5 C 4.609375 -4.726562 4.503906 -4.894531 4.296875 -5 C 4.148438 -5.082031 3.96875 -5.125 3.75 -5.125 C 3.164062 -5.125 2.875 -4.984375 2.875 -4.703125 C 2.875 -4.546875 2.972656 -4.4375 3.171875 -4.375 C 3.378906 -4.3125 3.710938 -4.242188 4.171875 -4.171875 C 4.734375 -4.085938 5.203125 -3.988281 5.578125 -3.875 C 5.960938 -3.769531 6.296875 -3.578125 6.578125 -3.296875 C 6.867188 -3.015625 7.015625 -2.625 7.015625 -2.125 C 7.015625 -1.3125 6.707031 -0.726562 6.09375 -0.375 C 5.476562 -0.03125 4.679688 0.140625 3.703125 0.140625 C 3.128906 0.140625 2.59375 0.0625 2.09375 -0.09375 C 1.59375 -0.25 1.179688 -0.492188 0.859375 -0.828125 C 0.546875 -1.160156 0.390625 -1.582031 0.390625 -2.09375 L 2.640625 -2.09375 L 2.640625 -2.046875 C 2.648438 -1.765625 2.765625 -1.566406 2.984375 -1.453125 C 3.203125 -1.347656 3.441406 -1.296875 3.703125 -1.296875 C 4.367188 -1.296875 4.703125 -1.457031 4.703125 -1.78125 C 4.703125 -1.9375 4.597656 -2.050781 4.390625 -2.125 C 4.179688 -2.195312 3.835938 -2.273438 3.359375 -2.359375 C 2.773438 -2.453125 2.300781 -2.554688 1.9375 -2.671875 C 1.570312 -2.785156 1.25 -2.976562 0.96875 -3.25 C 0.695312 -3.519531 0.5625 -3.898438 0.5625 -4.390625 C 0.5625 -5.171875 0.859375 -5.726562 1.453125 -6.0625 C 2.046875 -6.394531 2.820312 -6.5625 3.78125 -6.5625 Z M 3.78125 -6.5625 "/></g></g></g><g fill="#ffffff" fill-opacity="1"><g transform="translate(39.386256, 18.578778)"><g><path d="M 5.015625 -6.421875 L 5.015625 -4.78125 L 3.640625 -4.78125 L 3.640625 -2.328125 C 3.640625 -2.035156 3.6875 -1.820312 3.78125 -1.6875 C 3.882812 -1.5625 4.066406 -1.5 4.328125 -1.5 L 5.015625 -1.5 L 5.015625 -0.078125 C 4.816406 -0.00390625 4.5625 0.046875 4.25 0.078125 C 3.945312 0.117188 3.679688 0.140625 3.453125 0.140625 C 2.734375 0.140625 2.179688 0.015625 1.796875 -0.234375 C 1.421875 -0.492188 1.234375 -0.9375 1.234375 -1.5625 L 1.234375 -4.78125 L 0.328125 -4.78125 L 0.328125 -6.421875 L 1.328125 -6.421875 L 1.84375 -8.359375 L 3.640625 -8.359375 L 3.640625 -6.421875 Z M 5.015625 -6.421875 "/></g></g></g><g fill="#ffffff" fill-opacity="1"><g transform="translate(43.907441, 18.578778)"><g><path d="M 0.8125 -7.171875 L 0.8125 -8.8125 L 3.234375 -8.8125 L 3.234375 -7.171875 Z M 0.8125 0 L 0.8125 -6.421875 L 3.234375 -6.421875 L 3.234375 0 Z M 0.8125 0 "/></g></g></g><g fill="#ffffff" fill-opacity="1"><g transform="translate(47.079545, 18.578778)"><g><path d="M 4.046875 -6.5625 C 5.171875 -6.5625 6.054688 -6.273438 6.703125 -5.703125 C 7.347656 -5.128906 7.671875 -4.296875 7.671875 -3.203125 C 7.671875 -2.109375 7.347656 -1.273438 6.703125 -0.703125 C 6.054688 -0.140625 5.171875 0.140625 4.046875 0.140625 C 2.921875 0.140625 2.035156 -0.140625 1.390625 -0.703125 C 0.753906 -1.273438 0.4375 -2.109375 0.4375 -3.203125 C 0.4375 -4.304688 0.753906 -5.140625 1.390625 -5.703125 C 2.035156 -6.273438 2.921875 -6.5625 4.046875 -6.5625 Z M 4.046875 -4.921875 C 3.253906 -4.921875 2.859375 -4.460938 2.859375 -3.546875 L 2.859375 -2.859375 C 2.859375 -1.953125 3.253906 -1.5 4.046875 -1.5 C 4.847656 -1.5 5.25 -1.953125 5.25 -2.859375 L 5.25 -3.546875 C 5.25 -4.460938 4.847656 -4.921875 4.046875 -4.921875 Z M 4.046875 -4.921875 "/></g></g></g><g fill="#ffffff" fill-opacity="1"><g transform="translate(54.311045, 18.578778)"><g><path d="M 5.15625 -6.5625 C 5.894531 -6.5625 6.453125 -6.351562 6.828125 -5.9375 C 7.203125 -5.53125 7.390625 -4.9375 7.390625 -4.15625 L 7.390625 0 L 4.96875 0 L 4.96875 -3.859375 C 4.96875 -4.140625 4.894531 -4.363281 4.75 -4.53125 C 4.613281 -4.695312 4.414062 -4.78125 4.15625 -4.78125 C 3.851562 -4.78125 3.609375 -4.679688 3.421875 -4.484375 C 3.242188 -4.285156 3.15625 -4.046875 3.15625 -3.765625 L 3.15625 0 L 0.734375 0 L 0.734375 -6.421875 L 2.703125 -6.421875 L 2.875 -5.453125 C 3.125 -5.785156 3.453125 -6.050781 3.859375 -6.25 C 4.265625 -6.457031 4.695312 -6.5625 5.15625 -6.5625 Z M 5.15625 -6.5625 "/></g></g></g><g fill="#ffffff" fill-opacity="1"><g transform="translate(61.542545, 18.578778)"><g><path d="M 5.15625 -6.5625 C 5.894531 -6.5625 6.453125 -6.351562 6.828125 -5.9375 C 7.203125 -5.53125 7.390625 -4.9375 7.390625 -4.15625 L 7.390625 0 L 4.96875 0 L 4.96875 -3.859375 C 4.96875 -4.140625 4.894531 -4.363281 4.75 -4.53125 C 4.613281 -4.695312 4.414062 -4.78125 4.15625 -4.78125 C 3.851562 -4.78125 3.609375 -4.679688 3.421875 -4.484375 C 3.242188 -4.285156 3.15625 -4.046875 3.15625 -3.765625 L 3.15625 0 L 0.734375 0 L 0.734375 -6.421875 L 2.703125 -6.421875 L 2.875 -5.453125 C 3.125 -5.785156 3.453125 -6.050781 3.859375 -6.25 C 4.265625 -6.457031 4.695312 -6.5625 5.15625 -6.5625 Z M 5.15625 -6.5625 "/></g></g></g><g fill="#ffffff" fill-opacity="1"><g transform="translate(68.774049, 18.578778)"><g><path d="M 3.90625 -6.5625 C 4.882812 -6.5625 5.679688 -6.394531 6.296875 -6.0625 C 6.910156 -5.738281 7.21875 -5.207031 7.21875 -4.46875 L 7.21875 -1.96875 C 7.21875 -1.832031 7.25 -1.71875 7.3125 -1.625 C 7.382812 -1.539062 7.484375 -1.5 7.609375 -1.5 L 8.046875 -1.5 L 8.046875 -0.09375 C 8.023438 -0.0820312 7.960938 -0.0546875 7.859375 -0.015625 C 7.753906 0.015625 7.609375 0.046875 7.421875 0.078125 C 7.234375 0.117188 7.019531 0.140625 6.78125 0.140625 C 6.3125 0.140625 5.925781 0.0703125 5.625 -0.0625 C 5.320312 -0.207031 5.113281 -0.40625 5 -0.65625 C 4.6875 -0.414062 4.335938 -0.222656 3.953125 -0.078125 C 3.578125 0.0664062 3.132812 0.140625 2.625 0.140625 C 1.113281 0.140625 0.359375 -0.457031 0.359375 -1.65625 C 0.359375 -2.28125 0.523438 -2.753906 0.859375 -3.078125 C 1.203125 -3.410156 1.6875 -3.632812 2.3125 -3.75 C 2.945312 -3.875 3.773438 -3.9375 4.796875 -3.9375 L 4.796875 -4.25 C 4.796875 -4.5 4.707031 -4.6875 4.53125 -4.8125 C 4.363281 -4.945312 4.140625 -5.015625 3.859375 -5.015625 C 3.609375 -5.015625 3.390625 -4.96875 3.203125 -4.875 C 3.023438 -4.789062 2.9375 -4.65625 2.9375 -4.46875 L 2.9375 -4.40625 L 0.5625 -4.40625 C 0.550781 -4.445312 0.546875 -4.503906 0.546875 -4.578125 C 0.546875 -5.191406 0.832031 -5.675781 1.40625 -6.03125 C 1.988281 -6.382812 2.820312 -6.5625 3.90625 -6.5625 Z M 4.796875 -2.796875 C 4.109375 -2.796875 3.597656 -2.71875 3.265625 -2.5625 C 2.941406 -2.414062 2.78125 -2.21875 2.78125 -1.96875 C 2.78125 -1.5625 3.054688 -1.359375 3.609375 -1.359375 C 3.921875 -1.359375 4.195312 -1.441406 4.4375 -1.609375 C 4.675781 -1.785156 4.796875 -2 4.796875 -2.25 Z M 4.796875 -2.796875 "/></g></g></g><g fill="#ffffff" fill-opacity="1"><g transform="translate(76.005546, 18.578778)"><g><path d="M 0.8125 -7.171875 L 0.8125 -8.8125 L 3.234375 -8.8125 L 3.234375 -7.171875 Z M 0.8125 0 L 0.8125 -6.421875 L 3.234375 -6.421875 L 3.234375 0 Z M 0.8125 0 "/></g></g></g><g fill="#ffffff" fill-opacity="1"><g transform="translate(79.17765, 18.578778)"><g><path d="M 4.625 -6.578125 C 4.8125 -6.578125 4.976562 -6.550781 5.125 -6.5 C 5.269531 -6.457031 5.34375 -6.4375 5.34375 -6.4375 L 5.34375 -4.40625 L 4.578125 -4.40625 C 4.066406 -4.40625 3.703125 -4.273438 3.484375 -4.015625 C 3.265625 -3.753906 3.15625 -3.367188 3.15625 -2.859375 L 3.15625 0 L 0.734375 0 L 0.734375 -6.421875 L 2.703125 -6.421875 L 2.875 -5.453125 C 3.019531 -5.816406 3.25 -6.09375 3.5625 -6.28125 C 3.875 -6.476562 4.226562 -6.578125 4.625 -6.578125 Z M 4.625 -6.578125 "/></g></g></g><g fill="#ffffff" fill-opacity="1"><g transform="translate(83.698838, 18.578778)"><g><path d="M 4.046875 -6.5625 C 5.222656 -6.5625 6.117188 -6.285156 6.734375 -5.734375 C 7.359375 -5.179688 7.671875 -4.335938 7.671875 -3.203125 L 7.671875 -2.796875 L 2.859375 -2.796875 C 2.859375 -2.335938 2.960938 -1.988281 3.171875 -1.75 C 3.378906 -1.507812 3.703125 -1.390625 4.140625 -1.390625 C 4.546875 -1.390625 4.84375 -1.472656 5.03125 -1.640625 C 5.226562 -1.816406 5.328125 -2.046875 5.328125 -2.328125 L 7.671875 -2.328125 C 7.671875 -1.554688 7.375 -0.953125 6.78125 -0.515625 C 6.1875 -0.078125 5.320312 0.140625 4.1875 0.140625 C 3 0.140625 2.078125 -0.132812 1.421875 -0.6875 C 0.765625 -1.238281 0.4375 -2.078125 0.4375 -3.203125 C 0.4375 -4.304688 0.753906 -5.140625 1.390625 -5.703125 C 2.035156 -6.273438 2.921875 -6.5625 4.046875 -6.5625 Z M 4.140625 -5.015625 C 3.378906 -5.015625 2.957031 -4.65625 2.875 -3.9375 L 5.234375 -3.9375 C 5.234375 -4.269531 5.132812 -4.53125 4.9375 -4.71875 C 4.75 -4.914062 4.484375 -5.015625 4.140625 -5.015625 Z M 4.140625 -5.015625 "/></g></g></g></svg>