<svg xmlns="http://www.w3.org/2000/svg" xmlns:xlink="http://www.w3.org/1999/xlink" width="40" zoomAndPan="magnify" viewBox="0 0 30 30.000001" height="40" preserveAspectRatio="xMidYMid meet" version="1.0"><defs><g/><clipPath id="524ecbf9de"><path d="M 0.484375 0 L 29.515625 0 L 29.515625 29.03125 L 0.484375 29.03125 Z M 0.484375 0 " clip-rule="nonzero"/></clipPath><clipPath id="a1d5635490"><path d="M 1.746094 12.371094 L 8.992188 12.371094 L 8.992188 16.101562 L 1.746094 16.101562 Z M 1.746094 12.371094 " clip-rule="nonzero"/></clipPath><clipPath id="d58787fe77"><path d="M 1.792969 12.371094 L 8.949219 12.371094 C 8.960938 12.371094 8.972656 12.375 8.980469 12.382812 C 8.988281 12.394531 8.992188 12.40625 8.992188 12.417969 L 8.992188 16.058594 C 8.992188 16.070312 8.988281 16.082031 8.980469 16.089844 C 8.972656 16.097656 8.960938 16.101562 8.949219 16.101562 L 1.792969 16.101562 C 1.78125 16.101562 1.769531 16.097656 1.761719 16.089844 C 1.753906 16.082031 1.746094 16.070312 1.746094 16.058594 L 1.746094 12.417969 C 1.746094 12.40625 1.753906 12.394531 1.761719 12.382812 C 1.769531 12.375 1.78125 12.371094 1.792969 12.371094 Z M 1.792969 12.371094 " clip-rule="nonzero"/></clipPath><clipPath id="9ac72b20bc"><path d="M 22.703125 13.671875 L 28.253906 13.671875 L 28.253906 19.21875 L 22.703125 19.21875 Z M 22.703125 13.671875 " clip-rule="nonzero"/></clipPath><clipPath id="b0b0bfadab"><path d="M 25.476562 13.671875 C 23.945312 13.671875 22.703125 14.914062 22.703125 16.445312 C 22.703125 17.976562 23.945312 19.21875 25.476562 19.21875 C 27.011719 19.21875 28.253906 17.976562 28.253906 16.445312 C 28.253906 14.914062 27.011719 13.671875 25.476562 13.671875 Z M 25.476562 13.671875 " clip-rule="nonzero"/></clipPath></defs><g clip-path="url(#524ecbf9de)"><path fill="#ffffff" d="M 0.484375 0 L 29.515625 0 L 29.515625 29.03125 L 0.484375 29.03125 Z M 0.484375 0 " fill-opacity="1" fill-rule="nonzero"/><path fill="#242424" d="M 0.484375 0 L 29.515625 0 L 29.515625 29.03125 L 0.484375 29.03125 Z M 0.484375 0 " fill-opacity="1" fill-rule="nonzero"/></g><g clip-path="url(#a1d5635490)"><g clip-path="url(#d58787fe77)"><path fill="#ffffff" d="M 1.746094 12.371094 L 8.992188 12.371094 L 8.992188 16.101562 L 1.746094 16.101562 Z M 1.746094 12.371094 " fill-opacity="1" fill-rule="nonzero"/></g></g><g clip-path="url(#9ac72b20bc)"><g clip-path="url(#b0b0bfadab)"><path fill="#ffffff" d="M 22.703125 13.671875 L 28.253906 13.671875 L 28.253906 19.21875 L 22.703125 19.21875 Z M 22.703125 13.671875 " fill-opacity="1" fill-rule="nonzero"/></g></g><g fill="#ffffff" fill-opacity="1"><g transform="translate(9.791355, 19.739791)"><g><path d="M 4.703125 -9.796875 C 6.035156 -9.796875 7.050781 -9.269531 7.75 -8.21875 L 8.0625 -9.59375 L 11 -9.59375 L 11 3.578125 L 7.390625 3.578125 L 7.390625 -0.875 C 6.710938 -0.144531 5.816406 0.21875 4.703125 0.21875 C 3.410156 0.21875 2.410156 -0.203125 1.703125 -1.046875 C 1.003906 -1.890625 0.65625 -3.132812 0.65625 -4.78125 C 0.65625 -6.4375 1.003906 -7.6875 1.703125 -8.53125 C 2.410156 -9.375 3.410156 -9.796875 4.703125 -9.796875 Z M 5.828125 -7.140625 C 4.785156 -7.140625 4.265625 -6.519531 4.265625 -5.28125 L 4.265625 -4.328125 C 4.265625 -3.078125 4.785156 -2.453125 5.828125 -2.453125 C 6.359375 -2.453125 6.753906 -2.640625 7.015625 -3.015625 C 7.285156 -3.398438 7.421875 -3.894531 7.421875 -4.5 L 7.421875 -5.109375 C 7.421875 -5.710938 7.285156 -6.203125 7.015625 -6.578125 C 6.753906 -6.953125 6.359375 -7.140625 5.828125 -7.140625 Z M 5.828125 -7.140625 "/></g></g></g></svg>