<svg xmlns="http://www.w3.org/2000/svg" xmlns:xlink="http://www.w3.org/1999/xlink" width="500" zoomAndPan="magnify" viewBox="0 0 375 374.999991" height="500" preserveAspectRatio="xMidYMid meet" version="1.0"><defs><g/></defs><g fill="#000000" fill-opacity="1"><g transform="translate(71.560005, 194.159211)"><g><path d="M 3.3125 -2.234375 C 1.632812 -4.066406 0.796875 -6.304688 0.796875 -8.953125 C 0.796875 -11.609375 1.632812 -13.847656 3.3125 -15.671875 C 4.988281 -17.492188 7.113281 -18.40625 9.6875 -18.40625 C 12.0625 -18.40625 14.015625 -17.5625 15.546875 -15.875 L 15.625 -15.875 L 15.625 -17.890625 L 21.734375 -17.890625 L 21.734375 9.0625 L 15.546875 9.0625 L 15.546875 -1.703125 C 14.015625 -0.222656 12.0625 0.515625 9.6875 0.515625 C 7.113281 0.515625 4.988281 -0.398438 3.3125 -2.234375 Z M 8.5 -11.96875 C 7.738281 -11.195312 7.359375 -10.191406 7.359375 -8.953125 C 7.359375 -7.722656 7.757812 -6.710938 8.5625 -5.921875 C 9.363281 -5.140625 10.359375 -4.75 11.546875 -4.75 C 12.703125 -4.75 13.679688 -5.140625 14.484375 -5.921875 C 15.285156 -6.710938 15.6875 -7.726562 15.6875 -8.96875 C 15.6875 -10.175781 15.296875 -11.171875 14.515625 -11.953125 C 13.742188 -12.742188 12.753906 -13.140625 11.546875 -13.140625 C 10.285156 -13.140625 9.269531 -12.75 8.5 -11.96875 Z M 8.5 -11.96875 "/></g></g></g><g fill="#000000" fill-opacity="1"><g transform="translate(93.774483, 194.159211)"><g><path d="M 7.921875 -17.890625 L 7.921875 -9.375 C 7.921875 -7.613281 8.1875 -6.359375 8.71875 -5.609375 C 9.25 -4.867188 10.15625 -4.5 11.4375 -4.5 C 12.71875 -4.5 13.625 -4.867188 14.15625 -5.609375 C 14.695312 -6.359375 14.96875 -7.613281 14.96875 -9.375 L 14.96875 -17.890625 L 21.140625 -17.890625 L 21.140625 -7.875 C 21.140625 -4.90625 20.363281 -2.765625 18.8125 -1.453125 C 17.269531 -0.140625 14.8125 0.515625 11.4375 0.515625 C 8.0625 0.515625 5.601562 -0.140625 4.0625 -1.453125 C 2.519531 -2.765625 1.75 -4.90625 1.75 -7.875 L 1.75 -17.890625 Z M 7.921875 -17.890625 "/></g></g></g><g fill="#000000" fill-opacity="1"><g transform="translate(115.047354, 194.159211)"><g><path d="M 20.1875 -8.09375 L 7.21875 -8.09375 C 7.21875 -6.832031 7.625 -5.898438 8.4375 -5.296875 C 9.25 -4.691406 10.132812 -4.390625 11.09375 -4.390625 C 12.09375 -4.390625 12.878906 -4.523438 13.453125 -4.796875 C 14.035156 -5.066406 14.703125 -5.59375 15.453125 -6.375 L 19.90625 -4.15625 C 18.050781 -1.039062 14.960938 0.515625 10.640625 0.515625 C 7.941406 0.515625 5.625 -0.40625 3.6875 -2.25 C 1.757812 -4.09375 0.796875 -6.316406 0.796875 -8.921875 C 0.796875 -11.523438 1.757812 -13.753906 3.6875 -15.609375 C 5.625 -17.472656 7.941406 -18.40625 10.640625 -18.40625 C 13.472656 -18.40625 15.78125 -17.585938 17.5625 -15.953125 C 19.34375 -14.316406 20.234375 -11.972656 20.234375 -8.921875 C 20.234375 -8.503906 20.21875 -8.226562 20.1875 -8.09375 Z M 7.390625 -11.515625 L 14.1875 -11.515625 C 14.050781 -12.441406 13.6875 -13.15625 13.09375 -13.65625 C 12.5 -14.15625 11.738281 -14.40625 10.8125 -14.40625 C 9.789062 -14.40625 8.976562 -14.132812 8.375 -13.59375 C 7.769531 -13.0625 7.441406 -12.367188 7.390625 -11.515625 Z M 7.390625 -11.515625 "/></g></g></g><g fill="#000000" fill-opacity="1"><g transform="translate(134.471876, 194.159211)"><g><path d="M 9.875 -18.40625 C 10.894531 -18.40625 11.90625 -18.289062 12.90625 -18.0625 C 13.90625 -17.832031 14.648438 -17.601562 15.140625 -17.375 L 15.875 -17.015625 L 13.84375 -12.96875 C 12.445312 -13.71875 11.125 -14.09375 9.875 -14.09375 C 9.175781 -14.09375 8.679688 -14.015625 8.390625 -13.859375 C 8.097656 -13.710938 7.953125 -13.429688 7.953125 -13.015625 C 7.953125 -12.921875 7.960938 -12.828125 7.984375 -12.734375 C 8.003906 -12.640625 8.050781 -12.550781 8.125 -12.46875 C 8.195312 -12.382812 8.257812 -12.3125 8.3125 -12.25 C 8.375 -12.195312 8.472656 -12.132812 8.609375 -12.0625 C 8.753906 -12 8.863281 -11.945312 8.9375 -11.90625 C 9.019531 -11.875 9.15625 -11.820312 9.34375 -11.75 C 9.53125 -11.675781 9.671875 -11.625 9.765625 -11.59375 C 9.859375 -11.5625 10.015625 -11.507812 10.234375 -11.4375 C 10.453125 -11.363281 10.617188 -11.316406 10.734375 -11.296875 C 11.460938 -11.085938 12.09375 -10.851562 12.625 -10.59375 C 13.15625 -10.34375 13.71875 -9.992188 14.3125 -9.546875 C 14.90625 -9.109375 15.363281 -8.550781 15.6875 -7.875 C 16.019531 -7.207031 16.1875 -6.441406 16.1875 -5.578125 C 16.1875 -1.515625 13.359375 0.515625 7.703125 0.515625 C 6.429688 0.515625 5.21875 0.320312 4.0625 -0.0625 C 2.914062 -0.457031 2.082031 -0.851562 1.5625 -1.25 L 0.796875 -1.890625 L 3.3125 -6.109375 C 3.5 -5.941406 3.742188 -5.75 4.046875 -5.53125 C 4.347656 -5.3125 4.894531 -5.007812 5.6875 -4.625 C 6.476562 -4.238281 7.164062 -4.046875 7.75 -4.046875 C 9.019531 -4.046875 9.65625 -4.472656 9.65625 -5.328125 C 9.65625 -5.722656 9.492188 -6.03125 9.171875 -6.25 C 8.847656 -6.476562 8.296875 -6.726562 7.515625 -7 C 6.734375 -7.28125 6.125 -7.539062 5.6875 -7.78125 C 4.570312 -8.363281 3.6875 -9.019531 3.03125 -9.75 C 2.382812 -10.476562 2.0625 -11.445312 2.0625 -12.65625 C 2.0625 -14.46875 2.765625 -15.878906 4.171875 -16.890625 C 5.578125 -17.898438 7.476562 -18.40625 9.875 -18.40625 Z M 9.875 -18.40625 "/></g></g></g><g fill="#000000" fill-opacity="1"><g transform="translate(150.025348, 194.159211)"><g><path d="M 3.140625 -17.890625 L 3.140625 -24.546875 L 9.3125 -24.546875 L 9.3125 -17.890625 L 13.078125 -17.890625 L 13.078125 -13.1875 L 9.3125 -13.1875 L 9.3125 -7.5 C 9.3125 -5.84375 9.773438 -5.015625 10.703125 -5.015625 C 10.941406 -5.015625 11.1875 -5.0625 11.4375 -5.15625 C 11.695312 -5.25 11.894531 -5.34375 12.03125 -5.4375 L 12.234375 -5.578125 L 13.78125 -0.59375 C 12.445312 0.144531 10.929688 0.515625 9.234375 0.515625 C 8.078125 0.515625 7.078125 0.3125 6.234375 -0.09375 C 5.398438 -0.5 4.769531 -1.039062 4.34375 -1.71875 C 3.914062 -2.40625 3.609375 -3.125 3.421875 -3.875 C 3.234375 -4.632812 3.140625 -5.445312 3.140625 -6.3125 L 3.140625 -13.1875 L 0.5625 -13.1875 L 0.5625 -17.890625 Z M 3.140625 -17.890625 "/></g></g></g><g fill="#000000" fill-opacity="1"><g transform="translate(162.196003, 194.159211)"><g><path d="M 2.6875 -27.859375 C 3.40625 -28.585938 4.265625 -28.953125 5.265625 -28.953125 C 6.265625 -28.953125 7.125 -28.585938 7.84375 -27.859375 C 8.5625 -27.140625 8.921875 -26.28125 8.921875 -25.28125 C 8.921875 -24.28125 8.5625 -23.421875 7.84375 -22.703125 C 7.125 -21.984375 6.265625 -21.625 5.265625 -21.625 C 4.265625 -21.625 3.40625 -21.984375 2.6875 -22.703125 C 1.96875 -23.421875 1.609375 -24.28125 1.609375 -25.28125 C 1.609375 -26.28125 1.96875 -27.140625 2.6875 -27.859375 Z M 2.09375 -17.890625 L 2.09375 0 L 8.265625 0 L 8.265625 -17.890625 Z M 2.09375 -17.890625 "/></g></g></g><g fill="#000000" fill-opacity="1"><g transform="translate(171.123353, 194.159211)"><g><path d="M 3.78125 -2.125 C 1.789062 -3.894531 0.796875 -6.160156 0.796875 -8.921875 C 0.796875 -11.691406 1.832031 -13.960938 3.90625 -15.734375 C 5.976562 -17.515625 8.535156 -18.40625 11.578125 -18.40625 C 14.578125 -18.40625 17.101562 -17.507812 19.15625 -15.71875 C 21.21875 -13.9375 22.25 -11.671875 22.25 -8.921875 C 22.25 -6.179688 21.242188 -3.921875 19.234375 -2.140625 C 17.222656 -0.367188 14.671875 0.515625 11.578125 0.515625 C 8.367188 0.515625 5.769531 -0.363281 3.78125 -2.125 Z M 8.5625 -11.953125 C 7.757812 -11.171875 7.359375 -10.160156 7.359375 -8.921875 C 7.359375 -7.691406 7.738281 -6.6875 8.5 -5.90625 C 9.269531 -5.132812 10.285156 -4.75 11.546875 -4.75 C 12.753906 -4.75 13.742188 -5.140625 14.515625 -5.921875 C 15.296875 -6.710938 15.6875 -7.710938 15.6875 -8.921875 C 15.6875 -10.160156 15.285156 -11.171875 14.484375 -11.953125 C 13.679688 -12.742188 12.703125 -13.140625 11.546875 -13.140625 C 10.359375 -13.140625 9.363281 -12.742188 8.5625 -11.953125 Z M 8.5625 -11.953125 "/></g></g></g><g fill="#000000" fill-opacity="1"><g transform="translate(192.57059, 194.159211)"><g><path d="M 2.09375 0 L 2.09375 -17.890625 L 8.265625 -17.890625 L 8.265625 -16 L 8.328125 -16 C 9.929688 -17.601562 11.644531 -18.40625 13.46875 -18.40625 C 14.34375 -18.40625 15.21875 -18.289062 16.09375 -18.0625 C 16.96875 -17.832031 17.804688 -17.472656 18.609375 -16.984375 C 19.410156 -16.492188 20.0625 -15.800781 20.5625 -14.90625 C 21.0625 -14.007812 21.3125 -12.96875 21.3125 -11.78125 L 21.3125 0 L 15.140625 0 L 15.140625 -10.109375 C 15.140625 -11.046875 14.84375 -11.859375 14.25 -12.546875 C 13.65625 -13.242188 12.878906 -13.59375 11.921875 -13.59375 C 10.992188 -13.59375 10.148438 -13.234375 9.390625 -12.515625 C 8.640625 -11.796875 8.265625 -10.992188 8.265625 -10.109375 L 8.265625 0 Z M 2.09375 0 "/></g></g></g><g fill="#000000" fill-opacity="1"><g transform="translate(214.017818, 194.159211)"><g><path d="M 2.09375 0 L 2.09375 -17.890625 L 8.265625 -17.890625 L 8.265625 -16 L 8.328125 -16 C 9.929688 -17.601562 11.644531 -18.40625 13.46875 -18.40625 C 14.34375 -18.40625 15.21875 -18.289062 16.09375 -18.0625 C 16.96875 -17.832031 17.804688 -17.472656 18.609375 -16.984375 C 19.410156 -16.492188 20.0625 -15.800781 20.5625 -14.90625 C 21.0625 -14.007812 21.3125 -12.96875 21.3125 -11.78125 L 21.3125 0 L 15.140625 0 L 15.140625 -10.109375 C 15.140625 -11.046875 14.84375 -11.859375 14.25 -12.546875 C 13.65625 -13.242188 12.878906 -13.59375 11.921875 -13.59375 C 10.992188 -13.59375 10.148438 -13.234375 9.390625 -12.515625 C 8.640625 -11.796875 8.265625 -10.992188 8.265625 -10.109375 L 8.265625 0 Z M 2.09375 0 "/></g></g></g><g fill="#000000" fill-opacity="1"><g transform="translate(235.465055, 194.159211)"><g><path d="M 3.3125 -2.21875 C 1.632812 -4.039062 0.796875 -6.273438 0.796875 -8.921875 C 0.796875 -11.578125 1.632812 -13.820312 3.3125 -15.65625 C 4.988281 -17.488281 7.113281 -18.40625 9.6875 -18.40625 C 12.0625 -18.40625 14.015625 -17.664062 15.546875 -16.1875 L 15.546875 -17.890625 L 21.734375 -17.890625 L 21.734375 0 L 15.625 0 L 15.625 -2.015625 L 15.546875 -2.015625 C 14.015625 -0.328125 12.0625 0.515625 9.6875 0.515625 C 7.113281 0.515625 4.988281 -0.394531 3.3125 -2.21875 Z M 8.5625 -11.953125 C 7.757812 -11.171875 7.359375 -10.160156 7.359375 -8.921875 C 7.359375 -7.691406 7.738281 -6.6875 8.5 -5.90625 C 9.269531 -5.132812 10.285156 -4.75 11.546875 -4.75 C 12.753906 -4.75 13.742188 -5.140625 14.515625 -5.921875 C 15.296875 -6.710938 15.6875 -7.710938 15.6875 -8.921875 C 15.6875 -10.160156 15.285156 -11.171875 14.484375 -11.953125 C 13.679688 -12.742188 12.703125 -13.140625 11.546875 -13.140625 C 10.359375 -13.140625 9.363281 -12.742188 8.5625 -11.953125 Z M 8.5625 -11.953125 "/></g></g></g><g fill="#000000" fill-opacity="1"><g transform="translate(257.679535, 194.159211)"><g><path d="M 2.6875 -27.859375 C 3.40625 -28.585938 4.265625 -28.953125 5.265625 -28.953125 C 6.265625 -28.953125 7.125 -28.585938 7.84375 -27.859375 C 8.5625 -27.140625 8.921875 -26.28125 8.921875 -25.28125 C 8.921875 -24.28125 8.5625 -23.421875 7.84375 -22.703125 C 7.125 -21.984375 6.265625 -21.625 5.265625 -21.625 C 4.265625 -21.625 3.40625 -21.984375 2.6875 -22.703125 C 1.96875 -23.421875 1.609375 -24.28125 1.609375 -25.28125 C 1.609375 -26.28125 1.96875 -27.140625 2.6875 -27.859375 Z M 2.09375 -17.890625 L 2.09375 0 L 8.265625 0 L 8.265625 -17.890625 Z M 2.09375 -17.890625 "/></g></g></g><g fill="#000000" fill-opacity="1"><g transform="translate(266.606885, 194.159211)"><g><path d="M 2.09375 0 L 2.09375 -17.890625 L 8.265625 -17.890625 L 8.265625 -15.3125 L 8.328125 -15.3125 C 8.378906 -15.40625 8.457031 -15.519531 8.5625 -15.65625 C 8.664062 -15.800781 8.890625 -16.046875 9.234375 -16.390625 C 9.585938 -16.742188 9.960938 -17.054688 10.359375 -17.328125 C 10.753906 -17.609375 11.265625 -17.859375 11.890625 -18.078125 C 12.515625 -18.296875 13.15625 -18.40625 13.8125 -18.40625 C 14.488281 -18.40625 15.148438 -18.3125 15.796875 -18.125 C 16.453125 -17.945312 16.929688 -17.765625 17.234375 -17.578125 L 17.71875 -17.296875 L 15.140625 -12.0625 C 14.367188 -12.71875 13.296875 -13.046875 11.921875 -13.046875 C 11.179688 -13.046875 10.539062 -12.878906 10 -12.546875 C 9.46875 -12.222656 9.09375 -11.828125 8.875 -11.359375 C 8.65625 -10.898438 8.5 -10.503906 8.40625 -10.171875 C 8.3125 -9.847656 8.265625 -9.597656 8.265625 -9.421875 L 8.265625 0 Z M 2.09375 0 "/></g></g></g><g fill="#000000" fill-opacity="1"><g transform="translate(282.369606, 194.159211)"><g><path d="M 20.1875 -8.09375 L 7.21875 -8.09375 C 7.21875 -6.832031 7.625 -5.898438 8.4375 -5.296875 C 9.25 -4.691406 10.132812 -4.390625 11.09375 -4.390625 C 12.09375 -4.390625 12.878906 -4.523438 13.453125 -4.796875 C 14.035156 -5.066406 14.703125 -5.59375 15.453125 -6.375 L 19.90625 -4.15625 C 18.050781 -1.039062 14.960938 0.515625 10.640625 0.515625 C 7.941406 0.515625 5.625 -0.40625 3.6875 -2.25 C 1.757812 -4.09375 0.796875 -6.316406 0.796875 -8.921875 C 0.796875 -11.523438 1.757812 -13.753906 3.6875 -15.609375 C 5.625 -17.472656 7.941406 -18.40625 10.640625 -18.40625 C 13.472656 -18.40625 15.78125 -17.585938 17.5625 -15.953125 C 19.34375 -14.316406 20.234375 -11.972656 20.234375 -8.921875 C 20.234375 -8.503906 20.21875 -8.226562 20.1875 -8.09375 Z M 7.390625 -11.515625 L 14.1875 -11.515625 C 14.050781 -12.441406 13.6875 -13.15625 13.09375 -13.65625 C 12.5 -14.15625 11.738281 -14.40625 10.8125 -14.40625 C 9.789062 -14.40625 8.976562 -14.132812 8.375 -13.59375 C 7.769531 -13.0625 7.441406 -12.367188 7.390625 -11.515625 Z M 7.390625 -11.515625 "/></g></g></g><path stroke-linecap="butt" transform="matrix(1.020243, 0, 0, 1.020243, 55.649564, 242.692616)" fill="none" stroke-linejoin="miter" d="M -0.00110419 4.999155 L 84.434203 4.999155 " stroke="#292929" stroke-width="10" stroke-opacity="1" stroke-miterlimit="4"/><path stroke-linecap="butt" transform="matrix(0, 1.020243, -1.020243, 0, 65.846763, 165.706864)" fill="none" stroke-linejoin="miter" d="M 0.000164403 4.999465 L 82.463668 4.999465 " stroke="#292929" stroke-width="10" stroke-opacity="1" stroke-miterlimit="4"/><path stroke-linecap="butt" transform="matrix(-1.020243, 0, 0, -1.020243, 318.076097, 132.301427)" fill="none" stroke-linejoin="miter" d="M 0.00184119 5.000973 L 84.433319 5.000973 " stroke="#292929" stroke-width="10" stroke-opacity="1" stroke-miterlimit="4"/><path stroke-linecap="butt" transform="matrix(0, -1.020243, 1.020243, 0, 307.878911, 209.287179)" fill="none" stroke-linejoin="miter" d="M -0.00184607 5.000336 L 82.461657 5.000336 " stroke="#292929" stroke-width="10" stroke-opacity="1" stroke-miterlimit="4"/></svg>